<svg xmlns="http://www.w3.org/2000/svg" xmlns:xlink="http://www.w3.org/1999/xlink" width="25" height="25" viewBox="0 0 25 25"><defs><path id="oa9la" d="M738 1515a11.01 11.01 0 0 1-22 0 11.01 11.01 0 0 1 22 0zm-1.44 0a9.57 9.57 0 0 0-19.12 0 9.57 9.57 0 0 0 19.12 0zm-6.05-2.47c0 1.7-1.2 3.1-2.79 3.44v1.86a.72.72 0 0 1-1.44 0v-2.5c0-.4.32-.73.72-.73a2.07 2.07 0 1 0-2.07-2.07.72.72 0 1 1-1.44 0 3.51 3.51 0 0 1 7.02 0zm-2.6 7.43a.9.9 0 1 1-1.82 0 .9.9 0 0 1 1.82 0z"/></defs><g><g opacity=".4" transform="translate(-714 -1502)"><use xlink:href="#oa9la"/></g></g></svg>