<svg xmlns="http://www.w3.org/2000/svg" width="18" height="14" viewBox="0 0 18 14">
  <defs>
    <style>
      .cls-1 {
        fill: #5b646a;
        fill-rule: evenodd;
      }
    </style>
  </defs>
  <path id="Forma_1" data-name="Forma 1" class="cls-1" d="M989,104.667a2.377,2.377,0,0,1-.289,1.122l-5.683-6.594,5.621-5.1a2.377,2.377,0,0,1,.351,1.24v9.334Zm-9-4.275,7.822-7.1A2.158,2.158,0,0,0,986.75,93h-13.5a2.153,2.153,0,0,0-1.072.294Zm2.181-.43-1.811,1.644a0.547,0.547,0,0,1-.74,0l-1.811-1.644-5.756,6.679a2.163,2.163,0,0,0,1.187.359h13.5a2.166,2.166,0,0,0,1.187-.359ZM971.35,94.094a2.385,2.385,0,0,0-.35,1.24v9.334a2.365,2.365,0,0,0,.289,1.122l5.683-6.6Z" transform="translate(-971 -93)"/>
</svg>
