<svg xmlns="http://www.w3.org/2000/svg" width="21" height="16" viewBox="0 0 21 16">
  <metadata><?xpacket begin="﻿" id="W5M0MpCehiHzreSzNTczkc9d"?>
<x:xmpmeta xmlns:x="adobe:ns:meta/" x:xmptk="Adobe XMP Core 5.6-c140 79.160451, 2017/05/06-01:08:21        ">
   <rdf:RDF xmlns:rdf="http://www.w3.org/1999/02/22-rdf-syntax-ns#">
      <rdf:Description rdf:about=""/>
   </rdf:RDF>
</x:xmpmeta>
                                                                                                    
                                                                                                    
                                                                                                    
                                                                                                    
                                                                                                    
                                                                                                    
                                                                                                    
                                                                                                    
                                                                                                    
                                                                                                    
                                                                                                    
                                                                                                    
                                                                                                    
                                                                                                    
                                                                                                    
                                                                                                    
                                                                                                    
                                                                                                    
                                                                                                    
                                                                                                    
                           
<?xpacket end="w"?></metadata>
<defs>
    <style>
      .cls-1 {
        fill-rule: evenodd;
      }
    </style>
  </defs>
  <path class="cls-1" d="M903.436,371H887.568A2.572,2.572,0,0,0,885,373.571v10.858A2.572,2.572,0,0,0,887.568,387h15.864A2.572,2.572,0,0,0,906,384.429V373.575A2.569,2.569,0,0,0,903.436,371Zm1.395,13.429a1.4,1.4,0,0,1-1.395,1.4H887.568a1.4,1.4,0,0,1-1.395-1.4V373.575a1.4,1.4,0,0,1,1.395-1.4h15.864a1.4,1.4,0,0,1,1.395,1.4v10.854h0Zm-6.587-5.564,5.136-4.611a0.588,0.588,0,0,0-.787-0.874l-7.082,6.364-1.382-1.236a0.022,0.022,0,0,1-.009-0.013,0.932,0.932,0,0,0-.1-0.082l-5.623-5.038a0.588,0.588,0,0,0-.782.879l5.2,4.65-5.175,4.851a0.59,0.59,0,0,0-.026.831,0.6,0.6,0,0,0,.43.187,0.591,0.591,0,0,0,.4-0.157l5.253-4.92,1.425,1.275a0.586,0.586,0,0,0,.782,0l1.464-1.314,5.223,4.968a0.589,0.589,0,0,0,.83-0.021,0.59,0.59,0,0,0-.022-0.831Z" transform="translate(-885 -371)"/>
</svg>
