<svg xmlns="http://www.w3.org/2000/svg" width="16.76" height="26.062" viewBox="0 0 16.76 26.062">
  <defs>
    <style>
      .cls-1 {
        fill-rule: evenodd;
      }
    </style>
  </defs>
  <path id="Forma_1" data-name="Forma 1" class="cls-1" d="M1020.73,364.983h-13.46a1.651,1.651,0,0,0-1.65,1.648v22.737a1.651,1.651,0,0,0,1.65,1.649h13.46a1.651,1.651,0,0,0,1.65-1.649V366.631A1.651,1.651,0,0,0,1020.73,364.983Zm-14.28,4.143h15.1v17.217h-15.1V369.126Zm0.82-3.317h13.46a0.817,0.817,0,0,1,.82.822v1.944h-15.1v-1.944A0.817,0.817,0,0,1,1007.27,365.809Zm13.46,24.382h-13.46a0.817,0.817,0,0,1-.82-0.823v-2.475h15.1v2.475A0.817,0.817,0,0,1,1020.73,390.191Zm-6.73-2.933a1.353,1.353,0,1,0,1.35,1.353A1.349,1.349,0,0,0,1014,387.258Zm0,2.155a0.8,0.8,0,1,1,.8-0.8A0.8,0.8,0,0,1,1014,389.413Zm-1.87-21.806h3.74a0.276,0.276,0,1,0,0-.551h-3.74A0.276,0.276,0,1,0,1012.13,367.607Zm-0.99,0a0.27,0.27,0,0,0,.19-0.081,0.278,0.278,0,0,0,0-.39,0.269,0.269,0,0,0-.19-0.08,0.312,0.312,0,0,0-.2.08,0.278,0.278,0,0,0,0,.39A0.294,0.294,0,0,0,1011.14,367.607Z" transform="translate(-1005.62 -364.969)"/>
</svg>
