<svg xmlns="http://www.w3.org/2000/svg" width="17" height="21" viewBox="0 0 17 21">
  <metadata><?xpacket begin="﻿" id="W5M0MpCehiHzreSzNTczkc9d"?>
<x:xmpmeta xmlns:x="adobe:ns:meta/" x:xmptk="Adobe XMP Core 5.6-c138 79.159824, 2016/09/14-01:09:01        ">
   <rdf:RDF xmlns:rdf="http://www.w3.org/1999/02/22-rdf-syntax-ns#">
      <rdf:Description rdf:about=""/>
   </rdf:RDF>
</x:xmpmeta>
                                                                                                    
                                                                                                    
                                                                                                    
                                                                                                    
                                                                                                    
                                                                                                    
                                                                                                    
                                                                                                    
                                                                                                    
                                                                                                    
                                                                                                    
                                                                                                    
                                                                                                    
                                                                                                    
                                                                                                    
                                                                                                    
                                                                                                    
                                                                                                    
                                                                                                    
                                                                                                    
                           
<?xpacket end="w"?></metadata>
<defs>
    <style>
      .cls-1 {
        fill-rule: evenodd;
      }
    </style>
  </defs>
  <path class="cls-1" d="M1087.37,1281.22a4.817,4.817,0,0,0-1.44-1.89,5.662,5.662,0,0,0-2.35-1.13,11.972,11.972,0,0,0-2.56-.2h-8.61v9.73H1071v2.18h1.41v0.88H1071v2.19h1.41V1299h2.47v-6.02h8.84v-2.19h-8.84v-0.88h6.34c2.38,0,4.08-.63,5.14-1.85a5.477,5.477,0,0,0,1.64-3.99A8.093,8.093,0,0,0,1087.37,1281.22Zm-3.25,5.51a3.537,3.537,0,0,1-2.87,1h-6.37v-7.5h6.32a7.265,7.265,0,0,1,2.07.19,3.3,3.3,0,0,1,1.4,1.24,4.449,4.449,0,0,1,.54,2.24A4.176,4.176,0,0,1,1084.12,1286.73Z" transform="translate(-1071 -1278)"/>
</svg>
