<svg xmlns="http://www.w3.org/2000/svg" width="17" height="24" viewBox="0 0 17 24">
  <metadata><?xpacket begin="﻿" id="W5M0MpCehiHzreSzNTczkc9d"?>
<x:xmpmeta xmlns:x="adobe:ns:meta/" x:xmptk="Adobe XMP Core 5.6-c140 79.160451, 2017/05/06-01:08:21        ">
   <rdf:RDF xmlns:rdf="http://www.w3.org/1999/02/22-rdf-syntax-ns#">
      <rdf:Description rdf:about=""/>
   </rdf:RDF>
</x:xmpmeta>
                                                                                                    
                                                                                                    
                                                                                                    
                                                                                                    
                                                                                                    
                                                                                                    
                                                                                                    
                                                                                                    
                                                                                                    
                                                                                                    
                                                                                                    
                                                                                                    
                                                                                                    
                                                                                                    
                                                                                                    
                                                                                                    
                                                                                                    
                                                                                                    
                                                                                                    
                                                                                                    
                           
<?xpacket end="w"?></metadata>
<defs>
    <style>
      .cls-1 {
        fill-rule: evenodd;
      }
    </style>
  </defs>
  <path id="Forma_1" data-name="Forma 1" class="cls-1" d="M347.5,368a8.478,8.478,0,0,0-8.5,8.437,8.376,8.376,0,0,0,1.269,4.437l6.747,10.794a0.711,0.711,0,0,0,.6.332h0.006a0.71,0.71,0,0,0,.6-0.342l6.575-10.9a8.381,8.381,0,0,0,1.2-4.323A8.478,8.478,0,0,0,347.5,368Zm6.085,12.038-5.978,9.908-6.134-9.813a6.981,6.981,0,0,1-1.066-3.7,7.091,7.091,0,0,1,14.181,0A6.982,6.982,0,0,1,353.585,380.038Zm-6.085-7.819a4.219,4.219,0,1,0,4.25,4.218A4.238,4.238,0,0,0,347.5,372.219Zm0,7.04a2.822,2.822,0,1,1,2.838-2.822A2.834,2.834,0,0,1,347.5,379.259Z" transform="translate(-339 -368)"/>
</svg>
