<svg xmlns="http://www.w3.org/2000/svg" width="18" height="18" viewBox="0 0 18 18">
  <metadata><?xpacket begin="﻿" id="W5M0MpCehiHzreSzNTczkc9d"?>
<x:xmpmeta xmlns:x="adobe:ns:meta/" x:xmptk="Adobe XMP Core 5.6-c138 79.159824, 2016/09/14-01:09:01        ">
   <rdf:RDF xmlns:rdf="http://www.w3.org/1999/02/22-rdf-syntax-ns#">
      <rdf:Description rdf:about=""/>
   </rdf:RDF>
</x:xmpmeta>
                                                                                                    
                                                                                                    
                                                                                                    
                                                                                                    
                                                                                                    
                                                                                                    
                                                                                                    
                                                                                                    
                                                                                                    
                                                                                                    
                                                                                                    
                                                                                                    
                                                                                                    
                                                                                                    
                                                                                                    
                                                                                                    
                                                                                                    
                                                                                                    
                                                                                                    
                                                                                                    
                           
<?xpacket end="w"?></metadata>
<defs>
    <style>
      .cls-1 {
        fill: #5b646a;
        fill-rule: evenodd;
      }
    </style>
  </defs>
  <path id="Forma_1" data-name="Forma 1" class="cls-1" d="M1037.3,68.205a0.878,0.878,0,0,1-.26.763l-2.54,2.517a1.331,1.331,0,0,1-.45.324,1.784,1.784,0,0,1-.54.172c-0.01,0-.05,0-0.11.009s-0.15.01-.25,0.01a8.413,8.413,0,0,1-3.15-.734,16.291,16.291,0,0,1-2.66-1.459,19.981,19.981,0,0,1-3.17-2.669,22.288,22.288,0,0,1-2.21-2.517,19.033,19.033,0,0,1-1.41-2.221,12.792,12.792,0,0,1-.8-1.85,12.07,12.07,0,0,1-.36-1.43,4.378,4.378,0,0,1-.07-0.944c0.01-.229.01-0.356,0.01-0.381a2,2,0,0,1,.18-0.544,1.254,1.254,0,0,1,.32-0.448l2.53-2.536a0.859,0.859,0,0,1,.61-0.267,0.692,0.692,0,0,1,.44.143,1.32,1.32,0,0,1,.33.353l2.04,3.871a0.954,0.954,0,0,1,.09.667,1.216,1.216,0,0,1-.32.61l-0.94.934a0.445,0.445,0,0,0-.06.124,0.452,0.452,0,0,0-.03.143,3.327,3.327,0,0,0,.34.915,8.024,8.024,0,0,0,.71,1.115,11.311,11.311,0,0,0,1.35,1.516,12.9,12.9,0,0,0,1.52,1.363,9.076,9.076,0,0,0,1.12.715,2.948,2.948,0,0,0,.68.277l0.24,0.048a0.478,0.478,0,0,0,.13-0.029,0.4,0.4,0,0,0,.12-0.067l1.09-1.106a1.142,1.142,0,0,1,.8-0.305,1,1,0,0,1,.51.114h0.02l3.68,2.174A0.968,0.968,0,0,1,1037.3,68.205Z" transform="translate(-1019.31 -54)"/>
</svg>
