<svg xmlns="http://www.w3.org/2000/svg" width="22" height="23" viewBox="0 0 22 23">
  <metadata><?xpacket begin="﻿" id="W5M0MpCehiHzreSzNTczkc9d"?>
<x:xmpmeta xmlns:x="adobe:ns:meta/" x:xmptk="Adobe XMP Core 5.6-c140 79.160451, 2017/05/06-01:08:21        ">
   <rdf:RDF xmlns:rdf="http://www.w3.org/1999/02/22-rdf-syntax-ns#">
      <rdf:Description rdf:about=""/>
   </rdf:RDF>
</x:xmpmeta>
                                                                                                    
                                                                                                    
                                                                                                    
                                                                                                    
                                                                                                    
                                                                                                    
                                                                                                    
                                                                                                    
                                                                                                    
                                                                                                    
                                                                                                    
                                                                                                    
                                                                                                    
                                                                                                    
                                                                                                    
                                                                                                    
                                                                                                    
                                                                                                    
                                                                                                    
                                                                                                    
                           
<?xpacket end="w"?></metadata>
<defs>
    <style>
      .cls-1 {
        fill-rule: evenodd;
      }
    </style>
  </defs>
  <path class="cls-1" d="M694.4,380.248a2.127,2.127,0,0,0-1.572-.753,2.2,2.2,0,0,0-1.59.748l-1.47,1.529c-0.12-.068-0.241-0.131-0.358-0.194-0.167-.088-0.325-0.17-0.46-0.258a16.232,16.232,0,0,1-3.827-3.64,9.9,9.9,0,0,1-1.255-2.068c0.381-.364.734-0.743,1.078-1.107,0.131-.136.261-0.277,0.391-0.413a2.291,2.291,0,0,0,0-3.359l-1.27-1.325c-0.144-.15-0.292-0.306-0.432-0.461-0.279-.3-0.572-0.612-0.874-0.9a2.16,2.16,0,0,0-1.558-.714,2.233,2.233,0,0,0-1.581.714l-0.009.01-1.581,1.665a3.611,3.611,0,0,0-1.009,2.257,8.835,8.835,0,0,0,.6,3.6,21.1,21.1,0,0,0,3.557,6.194,22.034,22.034,0,0,0,7.287,5.956,11.006,11.006,0,0,0,4.092,1.262c0.1,0,.2.01,0.293,0.01a3.437,3.437,0,0,0,2.683-1.2c0-.01.014-0.015,0.019-0.024a10.633,10.633,0,0,1,.813-0.879c0.2-.2.405-0.408,0.605-0.626a2.475,2.475,0,0,0,.7-1.68,2.382,2.382,0,0,0-.716-1.665Zm1.665,5.111s0,0,0,0c-0.182.2-.368,0.389-0.568,0.592a12.6,12.6,0,0,0-.9.971,2.2,2.2,0,0,1-1.748.772c-0.07,0-.145,0-0.214,0a9.763,9.763,0,0,1-3.627-1.136,20.807,20.807,0,0,1-6.864-5.611,19.9,19.9,0,0,1-3.348-5.82,7.209,7.209,0,0,1-.521-3.039,2.275,2.275,0,0,1,.642-1.442l1.586-1.655a1.033,1.033,0,0,1,.706-0.345,0.982,0.982,0,0,1,.679.34L681.9,369c0.284,0.277.554,0.564,0.837,0.869,0.144,0.156.293,0.311,0.442,0.471l1.269,1.325a0.951,0.951,0,0,1,0,1.5c-0.134.141-.265,0.282-0.4,0.418-0.391.417-.763,0.806-1.168,1.184a0.167,0.167,0,0,0-.023.024,1.023,1.023,0,0,0-.242,1.1c0,0.015.01,0.029,0.014,0.044a10.725,10.725,0,0,0,1.5,2.558l0,0a17.317,17.317,0,0,0,4.129,3.922,6.127,6.127,0,0,0,.572.326c0.168,0.087.326,0.169,0.461,0.257,0.018,0.01.037,0.024,0.055,0.034a0.921,0.921,0,0,0,1.167-.214l1.591-1.66a1.037,1.037,0,0,1,.7-0.364,0.938,0.938,0,0,1,.67.354l0.009,0.01,2.562,2.675A0.986,0.986,0,0,1,696.061,385.359Zm-7.171-13.888a5.823,5.823,0,0,1,3.209,1.738,6.293,6.293,0,0,1,1.665,3.349,0.632,0.632,0,0,0,.618.544,0.774,0.774,0,0,0,.107-0.01,0.653,0.653,0,0,0,.516-0.757,7.6,7.6,0,0,0-2.013-4.053,7.074,7.074,0,0,0-3.883-2.1,0.636,0.636,0,0,0-.726.534A0.647,0.647,0,0,0,688.89,371.471Zm10.1,4.675a12.515,12.515,0,0,0-3.315-6.675,11.642,11.642,0,0,0-6.394-3.461,0.629,0.629,0,0,0-.721.534,0.656,0.656,0,0,0,.516.757,10.432,10.432,0,0,1,5.715,3.092,11.165,11.165,0,0,1,2.962,5.966,0.633,0.633,0,0,0,.619.544,0.774,0.774,0,0,0,.107-0.01A0.64,0.64,0,0,0,698.99,376.146Z" transform="translate(-677 -366)"/>
</svg>
