<svg
 xmlns="http://www.w3.org/2000/svg"
 xmlns:xlink="http://www.w3.org/1999/xlink"
 width="30px" height="30px">
<path fill-rule="evenodd"
 d="M14.999,0.002 C6.730,0.002 0.003,6.729 0.003,14.998 C0.003,23.267 6.730,29.994 14.999,29.994 C23.268,29.994 29.995,23.267 29.995,14.998 C29.995,6.729 23.268,0.002 14.999,0.002 ZM18.729,15.527 L16.289,15.527 C16.289,19.424 16.289,24.223 16.289,24.223 L12.674,24.223 C12.674,24.223 12.674,19.471 12.674,15.527 L10.955,15.527 L10.955,12.453 L12.674,12.453 L12.674,10.465 C12.674,9.041 13.350,6.816 16.322,6.816 L19.000,6.827 L19.000,9.810 C19.000,9.810 17.372,9.810 17.055,9.810 C16.739,9.810 16.289,9.969 16.289,10.647 L16.289,12.453 L19.044,12.453 L18.729,15.527 Z"/>
</svg>
