<svg
 xmlns="http://www.w3.org/2000/svg"
 xmlns:xlink="http://www.w3.org/1999/xlink"
 width="30px" height="30px">
<path fill-rule="evenodd"
 d="M14.999,29.994 C6.731,29.994 0.003,23.267 0.003,14.998 C0.003,6.729 6.731,0.002 14.999,0.002 C23.268,0.002 29.995,6.729 29.995,14.998 C29.995,23.267 23.268,29.994 14.999,29.994 ZM23.528,13.249 L23.528,9.766 C23.528,7.948 22.049,6.470 20.231,6.470 L9.767,6.470 C7.949,6.470 6.471,7.948 6.471,9.766 L6.471,13.249 L6.471,20.231 C6.471,22.050 7.949,23.528 9.767,23.528 L20.231,23.528 C22.049,23.528 23.528,22.050 23.528,20.231 L23.528,13.249 ZM20.230,21.864 L9.766,21.864 C8.865,21.864 8.132,21.134 8.132,20.231 L8.132,13.249 L10.678,13.249 C10.458,13.789 10.335,14.380 10.335,14.998 C10.335,17.569 12.427,19.663 14.999,19.663 C17.572,19.663 19.664,17.569 19.664,14.998 C19.664,14.380 19.539,13.789 19.318,13.249 L21.865,13.249 L21.865,20.231 C21.865,21.134 21.132,21.864 20.230,21.864 ZM18.662,8.444 L21.177,8.436 L21.554,8.435 L21.554,8.809 L21.554,11.326 L18.672,11.336 L18.662,8.444 ZM14.999,18.000 C13.344,18.000 11.996,16.653 11.997,14.998 C11.997,14.344 12.209,13.741 12.564,13.248 C13.111,12.491 13.997,11.996 14.999,11.996 C16.001,11.996 16.887,12.492 17.434,13.249 C17.788,13.741 18.002,14.345 18.002,14.998 C18.002,16.654 16.653,18.000 14.999,18.000 Z"/>
</svg>
