<svg
 xmlns="http://www.w3.org/2000/svg"
 xmlns:xlink="http://www.w3.org/1999/xlink"
 width="100%" height="100%">
<path fill-rule="evenodd"
 d="M15.000,0.000 C6.717,0.000 0.001,6.715 0.001,14.999 C0.001,23.283 6.717,29.998 15.000,29.998 C23.284,29.998 29.999,23.283 29.999,14.999 C29.999,6.715 23.284,0.000 15.000,0.000 ZM22.609,16.622 C23.308,17.304 24.047,17.947 24.675,18.700 C24.953,19.034 25.215,19.379 25.415,19.766 C25.699,20.318 25.442,20.925 24.947,20.957 L21.875,20.957 C21.081,21.023 20.450,20.703 19.917,20.160 C19.492,19.728 19.098,19.265 18.688,18.819 C18.521,18.635 18.345,18.462 18.135,18.326 C17.716,18.054 17.352,18.137 17.112,18.575 C16.868,19.020 16.812,19.513 16.788,20.009 C16.755,20.734 16.536,20.923 15.809,20.957 C14.256,21.030 12.782,20.794 11.412,20.011 C10.204,19.320 9.268,18.345 8.453,17.241 C6.866,15.089 5.650,12.727 4.558,10.298 C4.312,9.750 4.492,9.457 5.096,9.446 C6.099,9.427 7.102,9.429 8.104,9.445 C8.513,9.451 8.783,9.685 8.939,10.070 C9.481,11.404 10.146,12.672 10.978,13.849 C11.200,14.163 11.427,14.475 11.749,14.696 C12.105,14.941 12.377,14.860 12.544,14.462 C12.652,14.209 12.698,13.940 12.722,13.669 C12.801,12.742 12.811,11.815 12.673,10.891 C12.587,10.313 12.262,9.940 11.686,9.831 C11.392,9.776 11.435,9.667 11.578,9.499 C11.826,9.210 12.058,9.031 12.521,9.031 L15.993,9.030 C16.541,9.137 16.663,9.383 16.738,9.933 L16.741,13.792 C16.734,14.005 16.848,14.638 17.231,14.777 C17.538,14.879 17.740,14.633 17.924,14.438 C18.756,13.555 19.349,12.512 19.880,11.432 C20.115,10.956 20.317,10.464 20.514,9.971 C20.660,9.606 20.887,9.426 21.299,9.432 L24.642,9.436 C24.740,9.436 24.840,9.437 24.938,9.454 C25.501,9.550 25.656,9.793 25.481,10.343 C25.207,11.206 24.674,11.925 24.152,12.647 C23.594,13.418 22.999,14.164 22.445,14.940 C21.938,15.649 21.978,16.006 22.609,16.622 Z"/>
</svg>
