<svg
 xmlns="http://www.w3.org/2000/svg"
 xmlns:xlink="http://www.w3.org/1999/xlink"
 width="30px" height="30px">
<path fill-rule="evenodd"
 d="M15.000,29.998 C6.716,29.998 0.001,23.283 0.001,14.999 C0.001,6.716 6.716,0.000 15.000,0.000 C23.284,0.000 29.999,6.716 29.999,14.999 C29.999,23.283 23.284,29.998 15.000,29.998 ZM15.022,4.561 C12.106,4.553 9.737,6.909 9.721,9.833 C9.704,12.724 12.072,15.118 14.958,15.128 C17.875,15.138 20.258,12.799 20.273,9.912 C20.288,6.959 17.943,4.569 15.022,4.561 ZM21.022,15.669 C20.723,15.182 20.203,14.976 19.646,15.120 C19.358,15.194 19.111,15.339 18.879,15.515 C16.542,17.088 13.344,17.043 11.016,15.444 C10.902,15.365 10.783,15.291 10.657,15.232 C10.011,14.927 9.390,15.069 9.020,15.599 C8.587,16.219 8.643,16.821 9.190,17.346 C9.331,17.482 9.491,17.599 9.646,17.721 C10.895,18.698 12.355,19.096 13.973,19.265 C13.858,19.388 13.785,19.472 13.706,19.550 C12.520,20.741 11.334,21.932 10.144,23.119 C9.898,23.363 9.722,23.638 9.704,23.996 C9.679,24.527 10.007,25.055 10.524,25.305 C11.010,25.540 11.508,25.465 11.927,25.052 C12.860,24.132 13.787,23.208 14.700,22.268 C14.928,22.034 15.052,21.982 15.311,22.252 C16.200,23.182 17.124,24.079 18.031,24.991 C18.268,25.230 18.534,25.399 18.876,25.423 C19.416,25.460 19.966,25.115 20.211,24.590 C20.436,24.111 20.351,23.598 19.943,23.186 C18.745,21.974 17.537,20.772 16.336,19.564 C16.252,19.481 16.189,19.409 16.055,19.263 C16.941,19.158 17.835,18.998 18.652,18.681 C19.515,18.346 20.293,17.867 20.939,17.203 C21.360,16.770 21.365,16.226 21.022,15.669 ZM15.014,12.431 C13.577,12.436 12.424,11.301 12.413,9.872 C12.402,8.422 13.556,7.259 15.001,7.260 C16.434,7.262 17.577,8.404 17.582,9.840 C17.587,11.275 16.447,12.426 15.014,12.431 Z"/>
</svg>
