<svg xmlns="http://www.w3.org/2000/svg" xmlns:xlink="http://www.w3.org/1999/xlink" width="19" height="24" viewBox="0 0 19 24"><defs><path id="jr5ta" d="M459 753.07c0 1.8-.62 2.82-1.64 3.99-1.06 1.22-2.76 1.85-5.14 1.85h-6.34v.88h8.84v2.19h-8.84V768h-2.47v-6.02H442v-2.19h1.4v-.88H442v-2.18h1.4V747h8.62c1.1 0 1.97.06 2.56.2.82.17 1.8.64 2.35 1.13a4.86 4.86 0 0 1 1.44 1.89 8 8 0 0 1 .63 2.85zm-2.79-.17c0-.86-.18-1.61-.54-2.24-.34-.61-.8-.89-1.4-1.24a7.64 7.64 0 0 0-2.07-.19h-6.32v7.5h6.37c1.43 0 2.25-.33 2.87-1a4.2 4.2 0 0 0 1.1-2.83z"/></defs><g><g transform="translate(-441 -745)"><use xlink:href="#jr5ta"/></g></g></svg>