<svg xmlns="http://www.w3.org/2000/svg" xmlns:xlink="http://www.w3.org/1999/xlink" style="display:none"><defs><style>.cls-1{fill:#5b646a;fill-rule:evenodd}</style><style>.cls-1{fill:#5b646a;fill-rule:evenodd}</style><path id="a" d="M738 1515a11.01 11.01 0 0 1-22 0 11.01 11.01 0 0 1 22 0zm-1.44 0a9.57 9.57 0 0 0-19.12 0 9.57 9.57 0 0 0 19.12 0zm-6.05-2.47c0 1.7-1.2 3.1-2.79 3.44v1.86a.72.72 0 0 1-1.44 0v-2.5c0-.4.32-.73.72-.73a2.07 2.07 0 1 0-2.07-2.07.72.72 0 1 1-1.44 0 3.51 3.51 0 0 1 7.02 0zm-2.6 7.43a.9.9 0 1 1-1.82 0 .9.9 0 0 1 1.82 0z"/><style>.cls-1{fill-rule:evenodd}</style></defs><symbol id="icon-map" viewBox="0 0 14 20"><path id="Forma_1" data-name="Forma 1" class="cls-1" d="M666.949 55.052a7 7 0 0 0-9.9 0 7.979 7.979 0 0 0-.658 9.843L662 73l5.6-8.092a7.983 7.983 0 0 0-.651-9.856zm-4.885 7.448a2.556 2.556 0 1 1 2.556-2.557 2.559 2.559 0 0 1-2.556 2.557z" transform="translate(-655 -53)"/></symbol><symbol id="icon-phone" viewBox="0 0 18 18"><path id="Forma_1" data-name="Forma 1" class="cls-1" d="M1037.3 68.205a.878.878 0 0 1-.26.763l-2.54 2.517a1.331 1.331 0 0 1-.45.324 1.784 1.784 0 0 1-.54.172c-.01 0-.05 0-.11.009s-.15.01-.25.01a8.413 8.413 0 0 1-3.15-.734 16.291 16.291 0 0 1-2.66-1.459 19.981 19.981 0 0 1-3.17-2.669 22.288 22.288 0 0 1-2.21-2.517 19.033 19.033 0 0 1-1.41-2.221 12.792 12.792 0 0 1-.8-1.85 12.07 12.07 0 0 1-.36-1.43 4.378 4.378 0 0 1-.07-.944c.01-.229.01-.356.01-.381a2 2 0 0 1 .18-.544 1.254 1.254 0 0 1 .32-.448l2.53-2.536a.859.859 0 0 1 .61-.267.692.692 0 0 1 .44.143 1.32 1.32 0 0 1 .33.353l2.04 3.871a.954.954 0 0 1 .09.667 1.216 1.216 0 0 1-.32.61l-.94.934a.445.445 0 0 0-.06.124.452.452 0 0 0-.03.143 3.327 3.327 0 0 0 .34.915 8.024 8.024 0 0 0 .71 1.115 11.311 11.311 0 0 0 1.35 1.516 12.9 12.9 0 0 0 1.52 1.363 9.076 9.076 0 0 0 1.12.715 2.948 2.948 0 0 0 .68.277l.24.048a.478.478 0 0 0 .13-.029.4.4 0 0 0 .12-.067l1.09-1.106a1.142 1.142 0 0 1 .8-.305 1 1 0 0 1 .51.114h.02l3.68 2.174a.968.968 0 0 1 .47.63z" transform="translate(-1019.31 -54)"/></symbol><symbol id="icon-question" viewBox="0 0 25 25"><use xlink:href="#a" opacity=".4" transform="translate(-714 -1502)"/></symbol><symbol id="icon-rub" viewBox="0 0 17 21"><path class="cls-1" d="M16.37 3.22a4.817 4.817 0 0 0-1.44-1.89A5.662 5.662 0 0 0 12.58.2a11.972 11.972 0 0 0-2.56-.2H1.41v9.73H0v2.18h1.41v.88H0v2.19h1.41V21h2.47v-6.02h8.84v-2.19H3.88v-.88h6.34c2.38 0 4.08-.63 5.14-1.85A5.477 5.477 0 0 0 17 6.07a8.093 8.093 0 0 0-.63-2.85zm-3.25 5.51a3.537 3.537 0 0 1-2.87 1H3.88v-7.5h6.32a7.265 7.265 0 0 1 2.07.19 3.3 3.3 0 0 1 1.4 1.24 4.449 4.449 0 0 1 .54 2.24 4.176 4.176 0 0 1-1.09 2.83z"/></symbol><symbol id="temp-icon-left-arrow" viewBox="0 0 31.494 31.494"><path d="M10.273 5.01a1.117 1.117 0 0 1 1.587 1.57l-8.047 8.047h26.554c.62 0 1.127.492 1.127 1.11 0 .62-.508 1.128-1.127 1.128H3.813l8.047 8.032c.43.444.43 1.16 0 1.587a1.112 1.112 0 0 1-1.587 0L.32 16.532a1.12 1.12 0 0 1 0-1.57l9.953-9.953z" fill="#1E201D"/></symbol><symbol id="temp-icon-right-arrow" viewBox="0 0 31.49 31.49"><path d="M21.205 5.007a1.117 1.117 0 0 0-1.587 1.57l8.047 8.048H1.11c-.618 0-1.11.493-1.11 1.112 0 .62.492 1.127 1.11 1.127h26.555l-8.047 8.032c-.43.444-.43 1.16 0 1.587.444.444 1.16.444 1.587 0l9.952-9.952a1.092 1.092 0 0 0 0-1.57l-9.952-9.95z" fill="#1E201D"/></symbol></svg>