<svg xmlns="http://www.w3.org/2000/svg" xmlns:xlink="http://www.w3.org/1999/xlink" style="display:none"><defs><style>.cls-1{fill-rule:evenodd}</style><style>.cls-1{fill-rule:evenodd}</style><style>.cls-1{fill-rule:evenodd}</style><style>.cls-1{fill:#5b646a;fill-rule:evenodd}</style><style>.cls-1{fill:#5b646a;fill-rule:evenodd}</style><path id="a" d="M738 1515a11.01 11.01 0 0 1-22 0 11.01 11.01 0 0 1 22 0zm-1.44 0a9.57 9.57 0 0 0-19.12 0 9.57 9.57 0 0 0 19.12 0zm-6.05-2.47c0 1.7-1.2 3.1-2.79 3.44v1.86a.72.72 0 0 1-1.44 0v-2.5c0-.4.32-.73.72-.73a2.07 2.07 0 1 0-2.07-2.07.72.72 0 1 1-1.44 0 3.51 3.51 0 0 1 7.02 0zm-2.6 7.43a.9.9 0 1 1-1.82 0 .9.9 0 0 1 1.82 0z"/><style>.cls-1{fill-rule:evenodd}</style></defs><symbol id="icon-contact-email" viewBox="0 0 21 16"><path class="cls-1" d="M18.436 0H2.568A2.572 2.572 0 0 0 0 2.571v10.858A2.572 2.572 0 0 0 2.568 16h15.864A2.572 2.572 0 0 0 21 13.429V2.575A2.569 2.569 0 0 0 18.436 0zm1.395 13.429a1.4 1.4 0 0 1-1.395 1.4H2.568a1.4 1.4 0 0 1-1.395-1.4V2.575a1.4 1.4 0 0 1 1.395-1.4h15.864a1.4 1.4 0 0 1 1.395 1.4v10.854zm-6.587-5.564l5.136-4.611a.588.588 0 0 0-.787-.874l-7.082 6.364-1.382-1.236a.022.022 0 0 1-.009-.013.932.932 0 0 0-.1-.082L3.397 2.375a.588.588 0 0 0-.782.879l5.2 4.65-5.175 4.851a.59.59 0 0 0-.026.831.6.6 0 0 0 .43.187.591.591 0 0 0 .4-.157l5.253-4.92 1.425 1.275a.586.586 0 0 0 .782 0l1.464-1.314 5.223 4.968a.589.589 0 0 0 .83-.021.59.59 0 0 0-.022-.831z"/></symbol><symbol id="icon-contact-map" viewBox="0 0 17 24"><path id="Forma_1" data-name="Forma 1" class="cls-1" d="M347.5 368a8.478 8.478 0 0 0-8.5 8.437 8.376 8.376 0 0 0 1.269 4.437l6.747 10.794a.711.711 0 0 0 .6.332h.006a.71.71 0 0 0 .6-.342l6.575-10.9a8.381 8.381 0 0 0 1.2-4.323A8.478 8.478 0 0 0 347.5 368zm6.085 12.038l-5.978 9.908-6.134-9.813a6.981 6.981 0 0 1-1.066-3.7 7.091 7.091 0 0 1 14.181 0 6.982 6.982 0 0 1-1.003 3.605zm-6.085-7.819a4.219 4.219 0 1 0 4.25 4.218 4.238 4.238 0 0 0-4.25-4.218zm0 7.04a2.822 2.822 0 1 1 2.838-2.822 2.834 2.834 0 0 1-2.838 2.822z" transform="translate(-339 -368)"/></symbol><symbol id="icon-contact-phone" viewBox="0 0 22 23"><path class="cls-1" d="M17.4 14.248a2.127 2.127 0 0 0-1.572-.753 2.2 2.2 0 0 0-1.59.748l-1.47 1.529c-.12-.068-.241-.131-.358-.194-.167-.088-.325-.17-.46-.258a16.232 16.232 0 0 1-3.827-3.64 9.9 9.9 0 0 1-1.255-2.068c.381-.364.734-.743 1.078-1.107.131-.136.261-.277.391-.413a2.291 2.291 0 0 0 0-3.359l-1.27-1.325c-.144-.15-.292-.306-.432-.461-.279-.3-.572-.612-.874-.9a2.16 2.16 0 0 0-1.558-.714 2.233 2.233 0 0 0-1.581.714l-.009.01-1.581 1.665A3.611 3.611 0 0 0 .023 5.979a8.835 8.835 0 0 0 .6 3.6 21.1 21.1 0 0 0 3.557 6.194 22.034 22.034 0 0 0 7.287 5.956 11.006 11.006 0 0 0 4.092 1.262c.1 0 .2.01.293.01a3.437 3.437 0 0 0 2.683-1.2c0-.01.014-.015.019-.024a10.633 10.633 0 0 1 .813-.879c.2-.2.405-.408.605-.626a2.475 2.475 0 0 0 .7-1.68 2.382 2.382 0 0 0-.716-1.665zm1.665 5.111c-.182.2-.368.389-.568.592a12.6 12.6 0 0 0-.9.971 2.2 2.2 0 0 1-1.748.772h-.214a9.763 9.763 0 0 1-3.627-1.136 20.807 20.807 0 0 1-6.864-5.611 19.9 19.9 0 0 1-3.348-5.82 7.209 7.209 0 0 1-.521-3.039 2.275 2.275 0 0 1 .642-1.442l1.586-1.655a1.033 1.033 0 0 1 .706-.345.982.982 0 0 1 .679.34L4.9 3c.284.277.554.564.837.869.144.156.293.311.442.471l1.269 1.325a.951.951 0 0 1 0 1.5c-.134.141-.265.282-.4.418-.391.417-.763.806-1.168 1.184a.167.167 0 0 0-.023.024 1.023 1.023 0 0 0-.242 1.1c0 .015.01.029.014.044a10.725 10.725 0 0 0 1.5 2.558 17.317 17.317 0 0 0 4.129 3.922 6.127 6.127 0 0 0 .572.326c.168.087.326.169.461.257l.055.034a.921.921 0 0 0 1.167-.214l1.591-1.66a1.037 1.037 0 0 1 .7-.364.938.938 0 0 1 .67.354l.009.01 2.562 2.675a.986.986 0 0 1 .016 1.526zM11.894 5.471a5.823 5.823 0 0 1 3.209 1.738 6.293 6.293 0 0 1 1.665 3.349.632.632 0 0 0 .618.544.774.774 0 0 0 .107-.01.653.653 0 0 0 .516-.757 7.6 7.6 0 0 0-2.013-4.053 7.074 7.074 0 0 0-3.883-2.1.636.636 0 0 0-.726.534.647.647 0 0 0 .503.755zm10.1 4.675a12.515 12.515 0 0 0-3.315-6.675A11.642 11.642 0 0 0 12.285.01a.629.629 0 0 0-.721.534.656.656 0 0 0 .516.757 10.432 10.432 0 0 1 5.715 3.092 11.165 11.165 0 0 1 2.962 5.966.633.633 0 0 0 .619.544.774.774 0 0 0 .107-.01.64.64 0 0 0 .507-.747z"/></symbol><symbol id="icon-map" viewBox="0 0 14 20"><path id="Forma_1" data-name="Forma 1" class="cls-1" d="M666.949 55.052a7 7 0 0 0-9.9 0 7.979 7.979 0 0 0-.658 9.843L662 73l5.6-8.092a7.983 7.983 0 0 0-.651-9.856zm-4.885 7.448a2.556 2.556 0 1 1 2.556-2.557 2.559 2.559 0 0 1-2.556 2.557z" transform="translate(-655 -53)"/></symbol><symbol id="icon-phone" viewBox="0 0 18 18"><path id="Forma_1" data-name="Forma 1" class="cls-1" d="M1037.3 68.205a.878.878 0 0 1-.26.763l-2.54 2.517a1.331 1.331 0 0 1-.45.324 1.784 1.784 0 0 1-.54.172c-.01 0-.05 0-.11.009s-.15.01-.25.01a8.413 8.413 0 0 1-3.15-.734 16.291 16.291 0 0 1-2.66-1.459 19.981 19.981 0 0 1-3.17-2.669 22.288 22.288 0 0 1-2.21-2.517 19.033 19.033 0 0 1-1.41-2.221 12.792 12.792 0 0 1-.8-1.85 12.07 12.07 0 0 1-.36-1.43 4.378 4.378 0 0 1-.07-.944c.01-.229.01-.356.01-.381a2 2 0 0 1 .18-.544 1.254 1.254 0 0 1 .32-.448l2.53-2.536a.859.859 0 0 1 .61-.267.692.692 0 0 1 .44.143 1.32 1.32 0 0 1 .33.353l2.04 3.871a.954.954 0 0 1 .09.667 1.216 1.216 0 0 1-.32.61l-.94.934a.445.445 0 0 0-.06.124.452.452 0 0 0-.03.143 3.327 3.327 0 0 0 .34.915 8.024 8.024 0 0 0 .71 1.115 11.311 11.311 0 0 0 1.35 1.516 12.9 12.9 0 0 0 1.52 1.363 9.076 9.076 0 0 0 1.12.715 2.948 2.948 0 0 0 .68.277l.24.048a.478.478 0 0 0 .13-.029.4.4 0 0 0 .12-.067l1.09-1.106a1.142 1.142 0 0 1 .8-.305 1 1 0 0 1 .51.114h.02l3.68 2.174a.968.968 0 0 1 .47.63z" transform="translate(-1019.31 -54)"/></symbol><symbol id="icon-question" viewBox="0 0 25 25"><use xlink:href="#a" opacity=".4" transform="translate(-714 -1502)"/></symbol><symbol id="icon-rub" viewBox="0 0 17 21"><path class="cls-1" d="M16.37 3.22a4.817 4.817 0 0 0-1.44-1.89A5.662 5.662 0 0 0 12.58.2a11.972 11.972 0 0 0-2.56-.2H1.41v9.73H0v2.18h1.41v.88H0v2.19h1.41V21h2.47v-6.02h8.84v-2.19H3.88v-.88h6.34c2.38 0 4.08-.63 5.14-1.85A5.477 5.477 0 0 0 17 6.07a8.093 8.093 0 0 0-.63-2.85zm-3.25 5.51a3.537 3.537 0 0 1-2.87 1H3.88v-7.5h6.32a7.265 7.265 0 0 1 2.07.19 3.3 3.3 0 0 1 1.4 1.24 4.449 4.449 0 0 1 .54 2.24 4.176 4.176 0 0 1-1.09 2.83z"/></symbol><symbol id="temp-icon-left-arrow" viewBox="0 0 31.494 31.494"><path d="M10.273 5.01a1.117 1.117 0 0 1 1.587 1.57l-8.047 8.047h26.554c.62 0 1.127.492 1.127 1.11 0 .62-.508 1.128-1.127 1.128H3.813l8.047 8.032c.43.444.43 1.16 0 1.587a1.112 1.112 0 0 1-1.587 0L.32 16.532a1.12 1.12 0 0 1 0-1.57l9.953-9.953z" fill="#1E201D"/></symbol><symbol id="temp-icon-right-arrow" viewBox="0 0 31.49 31.49"><path d="M21.205 5.007a1.117 1.117 0 0 0-1.587 1.57l8.047 8.048H1.11c-.618 0-1.11.493-1.11 1.112 0 .62.492 1.127 1.11 1.127h26.555l-8.047 8.032c-.43.444-.43 1.16 0 1.587.444.444 1.16.444 1.587 0l9.952-9.952a1.092 1.092 0 0 0 0-1.57l-9.952-9.95z" fill="#1E201D"/></symbol></svg>